REM DIRINDEX 1\2\6,1\2\7,1\2\8,1\2\9,1\3\10,1\3\11,1\4\12,1\4\13,1\4\14,1\5\15,1\5\16,1\5\17
REM DIRNAME cjc020,folder01,folder02,folder03,folder04,folder05,folder06,folder07,folder08,folder09,folder10,folder11,folder12,folder13,folder14,folder15,folder16
TITLE ""
FILE "1900_2_sec04_0331_0346.mp3" MP3
  TRACK 01 AUDIO
    TITLE "0:"
    INDEX 01 00:00:00
  TRACK 02 AUDIO
    TITLE "13:cjc020_2760"
    INDEX 01 00:00:21
  TRACK 03 AUDIO
    TITLE "0:"
    INDEX 01 00:01:46
  TRACK 04 AUDIO
    TITLE "14:cjc020_2761"
    INDEX 01 00:01:48
  TRACK 05 AUDIO
    TITLE "0:"
    INDEX 01 00:04:13
  TRACK 06 AUDIO
    TITLE "13:cjc020_2762"
    INDEX 01 00:04:70
  TRACK 07 AUDIO
    TITLE "0:"
    INDEX 01 00:06:06
  TRACK 08 AUDIO
    TITLE "14:cjc020_2763"
    INDEX 01 00:06:12
  TRACK 09 AUDIO
    TITLE "0:"
    INDEX 01 00:08:44
  TRACK 10 AUDIO
    TITLE "13:cjc020_2764"
    INDEX 01 00:09:22
  TRACK 11 AUDIO
    TITLE "0:"
    INDEX 01 00:10:49
  TRACK 12 AUDIO
    TITLE "14:cjc020_2765"
    INDEX 01 00:10:55
  TRACK 13 AUDIO
    TITLE "0:"
    INDEX 01 00:14:13
  TRACK 14 AUDIO
    TITLE "13:cjc020_2766"
    INDEX 01 00:14:68
  TRACK 15 AUDIO
    TITLE "0:"
    INDEX 01 00:16:10
  TRACK 16 AUDIO
    TITLE "14:cjc020_2767"
    INDEX 01 00:16:12
  TRACK 17 AUDIO
    TITLE "0:"
    INDEX 01 00:18:39
  TRACK 18 AUDIO
    TITLE "13:cjc020_2768"
    INDEX 01 00:19:26
  TRACK 19 AUDIO
    TITLE "0:"
    INDEX 01 00:20:28
  TRACK 20 AUDIO
    TITLE "14:cjc020_2769"
    INDEX 01 00:20:34
  TRACK 21 AUDIO
    TITLE "0:"
    INDEX 01 00:22:56
  TRACK 22 AUDIO
    TITLE "13:cjc020_2770"
    INDEX 01 00:23:34
  TRACK 23 AUDIO
    TITLE "0:"
    INDEX 01 00:24:43
  TRACK 24 AUDIO
    TITLE "14:cjc020_2771"
    INDEX 01 00:24:49
  TRACK 25 AUDIO
    TITLE "0:"
    INDEX 01 00:27:20
  TRACK 26 AUDIO
    TITLE "13:cjc020_2772"
    INDEX 01 00:28:06
  TRACK 27 AUDIO
    TITLE "0:"
    INDEX 01 00:29:03
  TRACK 28 AUDIO
    TITLE "14:cjc020_2773"
    INDEX 01 00:29:07
  TRACK 29 AUDIO
    TITLE "0:"
    INDEX 01 00:32:72
  TRACK 30 AUDIO
    TITLE "13:cjc020_2774"
    INDEX 01 00:33:56
  TRACK 31 AUDIO
    TITLE "0:"
    INDEX 01 00:34:67
  TRACK 32 AUDIO
    TITLE "14:cjc020_2775"
    INDEX 01 00:34:73
  TRACK 33 AUDIO
    TITLE "0:"
    INDEX 01 00:39:00
  TRACK 34 AUDIO
    TITLE "13:cjc020_2776"
    INDEX 01 00:39:58
  TRACK 35 AUDIO
    TITLE "0:"
    INDEX 01 00:41:00
  TRACK 36 AUDIO
    TITLE "14:cjc020_2777"
    INDEX 01 00:41:06
  TRACK 37 AUDIO
    TITLE "0:"
    INDEX 01 00:44:69
  TRACK 38 AUDIO
    TITLE "13:cjc020_2778"
    INDEX 01 00:45:49
  TRACK 39 AUDIO
    TITLE "0:"
    INDEX 01 00:47:05
  TRACK 40 AUDIO
    TITLE "14:cjc020_2779"
    INDEX 01 00:47:09
  TRACK 41 AUDIO
    TITLE "0:"
    INDEX 01 00:49:72
  TRACK 42 AUDIO
    TITLE "12:cjc020_2780"
    INDEX 01 00:51:48
  TRACK 43 AUDIO
    TITLE "0:"
    INDEX 01 00:52:69
  TRACK 44 AUDIO
    TITLE "13:cjc020_2781"
    INDEX 01 00:53:70
  TRACK 45 AUDIO
    TITLE "0:"
    INDEX 01 00:55:40
  TRACK 46 AUDIO
    TITLE "14:cjc020_2782"
    INDEX 01 00:55:46
  TRACK 47 AUDIO
    TITLE "0:"
    INDEX 01 00:58:20
  TRACK 48 AUDIO
    TITLE "13:cjc020_2783"
    INDEX 01 00:59:04
  TRACK 49 AUDIO
    TITLE "0:"
    INDEX 01 01:00:35
  TRACK 50 AUDIO
    TITLE "14:cjc020_2784"
    INDEX 01 01:00:45
  TRACK 51 AUDIO
    TITLE "0:"
    INDEX 01 01:04:33
  TRACK 52 AUDIO
    TITLE "13:cjc020_2785"
    INDEX 01 01:05:13
  TRACK 53 AUDIO
    TITLE "0:"
    INDEX 01 01:06:43
  TRACK 54 AUDIO
    TITLE "14:cjc020_2786"
    INDEX 01 01:06:49
  TRACK 55 AUDIO
    TITLE "0:"
    INDEX 01 01:10:04
  TRACK 56 AUDIO
    TITLE "13:cjc020_2787"
    INDEX 01 01:10:59
  TRACK 57 AUDIO
    TITLE "0:"
    INDEX 01 01:12:09
  TRACK 58 AUDIO
    TITLE "14:cjc020_2788"
    INDEX 01 01:12:15
  TRACK 59 AUDIO
    TITLE "0:"
    INDEX 01 01:15:44
  TRACK 60 AUDIO
    TITLE "13:cjc020_2789"
    INDEX 01 01:16:26
  TRACK 61 AUDIO
    TITLE "0:"
    INDEX 01 01:17:43
  TRACK 62 AUDIO
    TITLE "14:cjc020_2790"
    INDEX 01 01:17:49
  TRACK 63 AUDIO
    TITLE "0:"
    INDEX 01 01:19:64
  TRACK 64 AUDIO
    TITLE "13:cjc020_2791"
    INDEX 01 01:20:49
  TRACK 65 AUDIO
    TITLE "0:"
    INDEX 01 01:22:09
  TRACK 66 AUDIO
    TITLE "14:cjc020_2792"
    INDEX 01 01:22:13
  TRACK 67 AUDIO
    TITLE "0:"
    INDEX 01 01:24:20
